<?xml version="1.0" encoding="UTF-8"?>
<svg version="1.1" xmlns="http://www.w3.org/2000/svg" width="3000" height="364">
<path d="M0 0 C44.88 0 89.76 0 136 0 C148.66942041 25.88968518 161.33668355 51.77969492 173.96875 77.6875 C177.46453577 84.85622907 180.96507635 92.02262288 184.46875 99.1875 C185.15965477 100.600383 185.15965477 100.600383 185.86451721 102.04180908 C188.18252393 106.78170327 190.50106202 111.521337 192.82006836 116.26074219 C197.38368309 125.5895443 201.93776508 134.9228224 206.47265625 144.265625 C207.34950905 146.07080998 208.22638044 147.87598594 209.10327148 149.68115234 C210.74216324 153.055196 212.3779453 156.43072259 214.01196289 159.80712891 C214.7500458 161.32720523 215.48823937 162.84722784 216.2265625 164.3671875 C216.5516127 165.04114563 216.8766629 165.71510376 217.21156311 166.40948486 C219.30683358 170.71432133 221.58664758 174.86463746 224 179 C234.67622025 157.17132536 245.35001902 135.34149098 256 113.5 C263.90511885 97.28788395 271.82246862 81.08177891 279.74951172 64.88037109 C284.40917487 55.35528696 289.06000266 45.82602417 293.6953125 36.2890625 C295.06599108 33.47106641 296.43680011 30.6531338 297.80761719 27.83520508 C298.67601213 26.04868688 299.54354562 24.26174965 300.41015625 22.47436523 C301.60726984 20.00531845 302.80726628 17.53769159 304.0078125 15.0703125 C304.35474152 14.35259674 304.70167053 13.63488098 305.05911255 12.89541626 C305.38910248 12.21852753 305.71909241 11.54163879 306.05908203 10.84423828 C306.33914093 10.26715118 306.61919983 9.69006409 306.90774536 9.0954895 C308.51379518 6.01428443 310.27608883 3.01684455 312 0 C356.55 0 401.1 0 447 0 C447 120.12 447 240.24 447 364 C402.45 364 357.9 364 312 364 C311.505 276.385 311.505 276.385 311 187 C307.04 195.25 303.08 203.5 299 212 C296.94373943 216.2255201 294.88488314 220.44853393 292.80859375 224.6640625 C292.3002449 225.69880707 291.79189606 226.73355164 291.2681427 227.7996521 C290.2027819 229.96806079 289.13696231 232.13624415 288.07067871 234.30419922 C285.22544611 240.0895126 282.38423869 245.87680221 279.54296875 251.6640625 C278.97893341 252.81279846 278.41489807 253.96153442 277.83377075 255.14508057 C272.2009563 266.62083618 266.60042236 278.1121667 261.00854492 289.60791016 C256.74619655 298.36918263 252.47303957 307.12504434 248.1875 315.875 C247.69288269 316.88522217 247.19826538 317.89544434 246.68865967 318.9362793 C244.28395815 323.8476339 241.87800426 328.75836674 239.46972656 333.66796875 C234.53938438 343.73051549 229.68664813 353.82149146 225 364 C222 363 222 363 220.81799316 361.20602417 C220.43784058 360.41986725 220.05768799 359.63371033 219.66601562 358.82373047 C219.22629929 357.92708679 218.78658295 357.03044312 218.33354187 356.10662842 C217.86253555 355.12011292 217.39152924 354.13359741 216.90625 353.1171875 C216.40740799 352.09296692 215.90856598 351.06874634 215.39460754 350.01348877 C213.75357458 346.63850939 212.12685677 343.25683254 210.5 339.875 C209.36188641 337.52801478 208.22279976 335.18150119 207.08276367 332.83544922 C204.7861286 328.10569334 202.49484943 323.37340634 200.20849609 318.63867188 C197.4489823 312.92519593 194.67700458 307.21795045 191.89453125 301.515625 C191.50760101 300.72261993 191.12067078 299.92961487 190.72201538 299.11257935 C189.96088762 297.55283114 189.19970893 295.99310779 188.43847656 294.43341064 C186.92009289 291.32051011 185.40467267 288.20617104 183.88925171 285.09182739 C178.27468399 273.55379024 172.63821671 262.02649484 167 250.5 C158.89267929 233.92551341 150.8012665 217.34335673 142.72460938 200.75390625 C142.34419998 199.97258835 141.96379059 199.19127045 141.57185364 198.38627625 C140.86396263 196.93224189 140.15618207 195.47815375 139.4485321 194.02400208 C137.73669526 190.5058815 137.73669526 190.5058815 136 187 C135.67 245.41 135.34 303.82 135 364 C90.45 364 45.9 364 0 364 C0 243.88 0 123.76 0 0 Z " fill="#E20025" transform="translate(448,0)"/>
<path d="M0 0 C0.92313285 0.00291284 1.84626571 0.00582568 2.79737228 0.00882679 C3.77011217 0.00797237 4.74285205 0.00711794 5.74506891 0.00623763 C9.03103054 0.00457987 12.31694203 0.01010901 15.60289901 0.01555592 C17.94784427 0.01583775 20.29278962 0.01568013 22.63773483 0.01511341 C29.0259093 0.01482529 35.41406518 0.02072438 41.80223531 0.02768737 C47.79522925 0.03328786 53.78822318 0.03430919 59.78121924 0.03533924 C71.6547254 0.03753007 83.5282247 0.044191 95.40172714 0.05364186 C106.93851064 0.06281517 118.47529229 0.0698964 130.0120787 0.07414967 C130.72272093 0.07441239 131.43336315 0.07467512 132.16553999 0.0749458 C135.7304783 0.0762508 139.29541663 0.07751452 142.86035496 0.0787577 C172.45414698 0.08913128 202.04793185 0.10682457 231.64171737 0.12908131 C232.11719048 1.3778447 232.59080523 2.62731573 233.06366771 3.87707001 C233.32761725 4.57279041 233.59156678 5.26851081 233.86351478 5.98531365 C235.11855026 9.44264532 236.12949084 12.96242056 237.14000839 16.49748951 C237.37237198 17.30064343 237.60473556 18.10379734 237.84414047 18.93128926 C238.6143793 21.59660296 239.38003221 24.26321054 240.14562362 26.92986256 C240.6970423 28.84193801 241.24872017 30.75393872 241.80063766 32.66587025 C243.29344352 37.84052594 244.78209408 43.01636864 246.2698912 48.19246632 C247.52708071 52.56433708 248.7867082 56.93550393 250.04628319 61.30668789 C259.15732954 92.92763568 268.2081091 124.56572526 277.23384994 156.21111256 C285.76975624 186.13822795 294.3753922 216.04474355 303.01671737 245.94158131 C311.2879775 274.56007031 319.54555118 303.18225572 327.73291153 331.82487828 C328.38757446 334.11459129 329.04274822 336.40415758 329.69805282 338.69368702 C330.7010077 342.19829185 331.70255993 345.70329414 332.70283264 349.20866543 C333.23680147 351.07902388 333.77193088 352.94905088 334.30709213 354.81906849 C334.61828995 355.91137272 334.92948776 357.00367695 335.25011581 358.12908131 C335.52095993 359.07783131 335.79180404 360.02658131 336.07085556 361.00408131 C336.64171737 363.12908131 336.64171737 363.12908131 336.64171737 364.12908131 C291.76171737 364.12908131 246.88171737 364.12908131 200.64171737 364.12908131 C195.03171737 344.98908131 189.42171737 325.84908131 183.64171737 306.12908131 C136.78171737 306.12908131 89.92171737 306.12908131 41.64171737 306.12908131 C33.72171737 333.35408131 33.72171737 333.35408131 25.64171737 361.12908131 C25.31171737 362.11908131 24.98171737 363.10908131 24.64171737 364.12908131 C-20.23828263 364.12908131 -65.11828263 364.12908131 -111.35828263 364.12908131 C-95.5909163 307.81705873 -95.5909163 307.81705873 -89.58588272 287.27748829 C-87.50196159 280.14572532 -85.42903117 273.01077254 -83.35828263 265.87517506 C-83.13057301 265.09059233 -82.90286339 264.3060096 -82.66825348 263.49765164 C-75.88026653 240.09746877 -69.21308639 216.66255307 -62.52908188 193.23251301 C-52.21201677 157.06720128 -41.86229678 120.91231717 -31.37424427 84.79619557 C-30.31261406 81.14032327 -29.25132719 77.48435144 -28.19031388 73.82830006 C-27.88541314 72.77778084 -27.88541314 72.77778084 -27.5743528 71.70603901 C-24.51875818 61.17431178 -21.49629925 50.63343484 -18.49500138 40.08611256 C-18.30243885 39.40977143 -18.10987633 38.73343029 -17.91147858 38.03659397 C-15.93925804 31.10945583 -13.97175509 24.18101686 -12.0125795 17.25017506 C-11.40262319 15.10171776 -10.79260151 12.95327902 -10.18250138 10.80486256 C-9.90766419 9.82685185 -9.632827 8.84884114 -9.34966141 7.84119374 C-9.09944733 6.96206822 -8.84923325 6.0829427 -8.59143692 5.17717701 C-8.37577576 4.41379521 -8.1601146 3.6504134 -7.93791825 2.86389881 C-6.61579704 -1.09313719 -3.69941405 0.00886326 0 0 Z M112.64171737 58.12908131 C110.27935974 64.18844694 108.33780521 70.28834809 106.53624862 76.53533131 C106.22768936 77.59656208 105.91913009 78.65779286 105.60122055 79.75118214 C104.54871346 83.37614198 103.50130316 87.00255203 102.45421737 90.62908131 C102.08318317 91.91075573 101.71201639 93.19239177 101.3407225 94.47399098 C92.52664255 124.90178388 83.834724 155.36489381 75.13067716 185.82429844 C74.57778837 187.75908199 74.02485751 189.69385352 73.47192138 191.62862355 C71.34625279 199.06677813 69.22160707 206.50522404 67.09828705 213.94404942 C66.44089799 216.24693532 65.78331007 218.54976447 65.12551636 220.85253483 C64.21872179 224.0273755 63.31278145 227.20245862 62.40709823 230.37761647 C62.00601962 231.78104676 62.00601962 231.78104676 61.59683841 233.21282917 C61.35225989 234.0709898 61.10768137 234.92915043 60.85569137 235.81331593 C60.6440129 236.55502852 60.43233442 237.29674111 60.21424145 238.06092983 C59.65676524 240.07472329 59.14850331 242.10193755 58.64171737 244.12908131 C94.28171737 244.12908131 129.92171737 244.12908131 166.64171737 244.12908131 C162.52584845 228.84156815 158.40075819 213.59818083 153.94445175 198.41252857 C151.66202128 190.62254947 149.3891658 182.82981786 147.12218612 175.03533131 C146.91368908 174.31861822 146.70519203 173.60190514 146.49037689 172.86347347 C140.13154723 150.99469808 133.89224205 129.09149821 127.64171737 107.19158131 C127.34982403 106.16899849 127.05793068 105.14641567 126.75719208 104.0928455 C123.61674139 93.0909613 120.47739421 82.08876282 117.34048122 71.08586937 C116.10898954 66.76653063 114.87599618 62.44762448 113.64171737 58.12908131 C113.31171737 58.12908131 112.98171737 58.12908131 112.64171737 58.12908131 Z " fill="#E20024" transform="translate(1048.3582826256752,-0.12908130884170532)"/>
<path d="M0 0 C45.560625 -0.061875 91.12125 -0.12375 138.0625 -0.1875 C152.43949463 -0.21481201 166.81648926 -0.24212402 181.62915039 -0.27026367 C199.20788574 -0.28381348 199.20788574 -0.28381348 207.44163513 -0.28633118 C213.18268033 -0.28912202 218.92363735 -0.30009779 224.66465759 -0.31672668 C231.29509769 -0.33590319 237.92545359 -0.34448913 244.55592158 -0.34033485 C247.94343393 -0.33853749 251.33060864 -0.3429717 254.71811116 -0.35764539 C286.034676 -0.48695105 309.72369746 5.62087396 333.0625 27.625 C350.22129638 45.21478655 358.27936802 69.29074012 358.24658203 93.52661133 C357.9150979 117.2912989 347.76944746 140.17971892 331 157 C316.92333668 170.1008797 299.91683399 178.55728117 281 182 C281.5576001 182.13986328 282.1152002 182.27972656 282.68969727 182.42382812 C302.11767772 187.38908908 317.9280208 194.16737327 332 209 C332.495 209.42796875 332.99 209.8559375 333.5 210.296875 C348.3422892 223.62744956 356.88727592 245.98573945 358.16703224 265.55402946 C358.41741436 272.55391477 358.34540155 279.55573339 358.29296875 286.55859375 C358.28854671 288.54886624 358.28549309 290.53914225 358.28381348 292.52941895 C358.26821442 299.83216654 358.22633115 307.13483899 358.1875 314.4375 C358.125625 330.793125 358.06375 347.14875 358 364 C314.11 364 270.22 364 225 364 C224.6875 315.75 224.6875 315.75 224.61206055 300.57714844 C224.57544881 296.04542387 224.57544881 296.04542387 224.5349884 291.51373291 C224.5189556 289.5126292 224.50858884 287.51147475 224.50288391 285.51031494 C224.43376706 264.08179006 221.22502101 246.15034285 206 230 C184.57396941 212.64575766 166.15298145 214.78791842 137 214 C137 263.5 137 313 137 364 C91.79 364 46.58 364 0 364 C0 243.88 0 123.76 0 0 Z M137 42 C137 77.64 137 113.28 137 150 C176.70177748 151.26591308 176.70177748 151.26591308 208.4609375 132.86328125 C219.81804608 120.05595727 225.39090169 105.57389837 225.21484375 88.37890625 C224.44222148 76.22766507 218.91829051 65.24393962 210 57 C187.8575658 40.17454842 164.41119868 42 137 42 Z " fill="#E20024" transform="translate(2235,0)"/>
<path d="M0 0 C118.14 0 236.28 0 358 0 C358 19.8 358 39.6 358 60 C284.74 60 211.48 60 136 60 C136 90.36 136 120.72 136 152 C209.26 152 282.52 152 358 152 C358 172.13 358 192.26 358 213 C284.74 213 211.48 213 136 213 C136 243.03 136 273.06 136 304 C209.26 304 282.52 304 358 304 C358 323.8 358 343.6 358 364 C239.86 364 121.72 364 0 364 C0 243.88 0 123.76 0 0 Z " fill="#E10025" transform="translate(2642,0)"/>
<path d="M0 0 C64.845 -0.0928125 64.845 -0.0928125 131 -0.1875 C144.63699219 -0.21481201 158.27398438 -0.24212402 172.32421875 -0.27026367 C189.00976562 -0.28381348 189.00976562 -0.28381348 196.82739258 -0.28633118 C202.27339631 -0.28911982 207.71930985 -0.30008618 213.1652832 -0.31672668 C219.45721358 -0.33592338 225.74905514 -0.34448449 232.04101497 -0.34033485 C235.25453489 -0.33853997 238.46781847 -0.34294806 241.68131065 -0.35764539 C271.5925199 -0.48802947 299.22443202 5.24159182 322 26 C322.4738916 26.43151367 322.9477832 26.86302734 323.43603516 27.30761719 C343.46268849 45.78485689 356.71996164 71.61356488 358.10498047 99.08203125 C359.24152633 131.32887269 349.06102666 158.13797295 327.1640625 181.765625 C315.03702305 194.28668378 299.28144975 203.69428202 282.625 208.75 C281.97813232 208.94883789 281.33126465 209.14767578 280.66479492 209.35253906 C269.64433561 212.48856238 258.340507 213.30028279 246.93603516 213.22705078 C245.69532446 213.22729185 244.45461376 213.22753292 243.17630577 213.2277813 C239.21381489 213.2263046 235.25151912 213.21114805 231.2890625 213.1953125 C228.8212086 213.19236696 226.35335345 213.19032967 223.88549805 213.18920898 C214.79864614 213.17878085 205.7118211 213.15085839 196.625 213.125 C166.120625 213.063125 166.120625 213.063125 135 213 C135 262.83 135 312.66 135 364 C90.45 364 45.9 364 0 364 C0 243.88 0 123.76 0 0 Z M137 42 C137 77.64 137 113.28 137 150 C176.25442073 151.19843646 176.25442073 151.19843646 207.86499023 133.46850586 C218.9521675 122.30988333 225.01643151 107.48105254 225.25 91.8125 C225.12897179 78.5296536 220.5688566 67.97926629 211.5390625 58.390625 C191.09706839 39.14370132 163.17916111 42 137 42 Z " fill="#E20024" transform="translate(1427,0)"/>
<path d="M0 0 C118.14 0 236.28 0 358 0 C358 19.8 358 39.6 358 60 C284.41 60 210.82 60 135 60 C135 90.36 135 120.72 135 152 C208.59 152 282.18 152 358 152 C358 171.8 358 191.6 358 212 C356.14914589 213.85085411 353.52345416 213.1227562 351.06048721 213.12908131 C349.76917069 213.12471205 349.76917069 213.12471205 348.45176697 213.12025452 C347.09066239 213.12153615 347.09066239 213.12153615 345.70206076 213.12284368 C342.63721038 213.12450127 339.57241377 213.11897258 336.50756836 213.11352539 C334.32025656 213.11324355 332.13294467 213.11340119 329.94563293 213.1139679 C323.98719628 213.114256 318.02877955 213.10835714 312.07034755 213.10139394 C305.85098161 213.09516259 299.63161528 213.09455678 293.4122467 213.09336853 C282.96680358 213.09060885 272.52136732 213.08435336 262.07592773 213.07543945 C251.31518592 213.066266 240.5544461 213.0591963 229.79370117 213.05493164 C229.1240835 213.05466364 228.45446582 213.05439565 227.76455671 213.05411953 C221.94020931 213.0518068 216.11586186 213.04965395 210.2915144 213.04751682 C185.19433602 213.03810045 160.0971771 213.01818197 135 213 C135 262.83 135 312.66 135 364 C90.45 364 45.9 364 0 364 C0 243.88 0 123.76 0 0 Z " fill="#E20024" transform="translate(1831,0)"/>
<path d="M0 0 C1.17156143 -0.01052147 1.17156143 -0.01052147 2.36679077 -0.02125549 C4.8734927 -0.03866725 7.37995857 -0.04510767 9.88671875 -0.046875 C11.16985458 -0.04788712 11.16985458 -0.04788712 12.47891235 -0.04891968 C24.76613199 -0.03349054 36.57841907 0.32050142 48.57421875 3.203125 C49.70053711 3.45255859 49.70053711 3.45255859 50.84960938 3.70703125 C82.36718981 10.7340723 111.19337871 25.9893818 134.57421875 48.203125 C135.94353093 49.37646223 137.31813662 50.54366466 138.69921875 51.703125 C169.86882342 79.0160443 188.99098927 123.45412663 192.57421875 164.203125 C192.91617804 170.09490845 192.91582133 175.99089312 192.88671875 181.890625 C192.8845636 182.68059875 192.88240845 183.47057251 192.88018799 184.28448486 C192.82694122 196.47368667 192.34062448 208.28496195 189.57421875 220.203125 C189.27620361 221.51095947 189.27620361 221.51095947 188.97216797 222.84521484 C181.588675 254.28728041 166.839479 282.76806123 144.57421875 306.203125 C143.40088152 307.57243718 142.23367909 308.94704287 141.07421875 310.328125 C113.8192978 341.43154174 70.08119274 360.01893192 29.57421875 364.203125 C23.45457999 364.57910927 17.3283455 364.59324356 11.19921875 364.578125 C10.36650452 364.57758118 9.53379028 364.57703735 8.67584229 364.57647705 C-19.41660002 364.49243839 -45.17599467 358.51980494 -70.42578125 346.203125 C-71.07353516 345.89149414 -71.72128906 345.57986328 -72.38867188 345.25878906 C-87.20989114 338.04660976 -100.45840265 328.50932246 -112.42578125 317.203125 C-113.75520073 316.07350267 -115.08841843 314.94833188 -116.42578125 313.828125 C-147.99471419 286.11832013 -167.31744189 242.46487291 -171.42578125 201.203125 C-171.5819249 198.45295295 -171.63481963 195.70731769 -171.6640625 192.953125 C-171.67385635 192.18580048 -171.68365021 191.41847595 -171.69374084 190.62789917 C-172.01708744 158.69847902 -167.52566639 130.10856808 -153.42578125 101.203125 C-153.11415039 100.55537109 -152.80251953 99.90761719 -152.48144531 99.24023438 C-135.51985885 64.38372547 -106.5450309 36.98417675 -72.42578125 19.203125 C-71.82185547 18.88746582 -71.21792969 18.57180664 -70.59570312 18.24658203 C-49.09626638 7.19596595 -24.25154982 0.14610981 0 0 Z M-102.42578125 63.203125 C-102.92722656 63.67202148 -103.42867187 64.14091797 -103.9453125 64.62402344 C-132.85045903 91.78853158 -151.88463947 131.3707308 -153.55200195 171.21972656 C-154.59057272 215.57164386 -142.65531192 258.84758112 -111.66381836 291.80297852 C-110.72787449 292.7819468 -109.78881079 293.75794171 -108.84667969 294.73095703 C-107.41241986 296.2169685 -106.00120349 297.72272583 -104.58984375 299.23046875 C-77.11682241 328.12891134 -36.28256166 345.15604239 3.3515625 346.484375 C49.40970965 347.3880912 91.08744254 331.93583198 124.57421875 300.203125 C125.46882813 299.36136719 126.3634375 298.51960938 127.28515625 297.65234375 C157.19453316 268.70643416 174.0638401 227.26838213 174.85986328 185.88134766 C175.21683804 141.14267442 159.31013869 100.63801538 128.57421875 68.203125 C127.73246094 67.30851562 126.89070313 66.41390625 126.0234375 65.4921875 C98.476886 37.02874644 57.93511345 18.96893345 18.2734375 18 C-27.37446139 17.48655457 -68.96936527 31.43944435 -102.42578125 63.203125 Z " fill="#E20024" transform="translate(171.42578125,-0.203125)"/>
<path d="M0 0 C1.86537951 2.11693484 3.11950696 4.15632098 4.4453125 6.63671875 C5.50367645 8.64159516 5.50367645 8.64159516 6.8828125 10.13671875 C10.30350615 10.53625655 10.30350615 10.53625655 12.65234375 10.25390625 C19.61092952 9.8883063 24.93834385 12.81456872 30.0078125 17.32421875 C31.64522058 18.91571819 33.27085775 20.51944401 34.8828125 22.13671875 C35.56085938 22.75546875 36.23890625 23.37421875 36.9375 24.01171875 C53.4063522 39.35619148 63.96270675 61.9356613 66.1953125 84.26171875 C65.46014761 93.37776342 61.85560798 101.15197121 54.8828125 107.13671875 C47.95249813 111.66909164 41.40569058 112.28673177 33.23706055 112.25024414 C32.3780162 112.25039017 31.51897186 112.25053619 30.63389587 112.25068665 C27.80408168 112.24999187 24.9743339 112.24221986 22.14453125 112.234375 C20.17869604 112.23250927 18.21286037 112.2310861 16.24702454 112.23008728 C11.08001414 112.22627428 5.91303198 112.21645437 0.74603271 112.2053833 C-5.45730252 112.19334169 -11.6606472 112.18876115 -17.86399078 112.18292999 C-27.28174264 112.17324198 -36.69943258 112.15407689 -46.1171875 112.13671875 C-46.1171875 130.61671875 -46.1171875 149.09671875 -46.1171875 168.13671875 C-52.0571875 168.13671875 -57.9971875 168.13671875 -64.1171875 168.13671875 C-64.1171875 149.65671875 -64.1171875 131.17671875 -64.1171875 112.13671875 C-70.35367188 112.17152344 -76.59015625 112.20632812 -83.015625 112.2421875 C-86.98047819 112.25752675 -90.94529448 112.2719694 -94.91015625 112.28320312 C-101.1952276 112.30109551 -107.4801671 112.32220014 -113.76513672 112.36303711 C-118.83557195 112.39577419 -123.90586566 112.41360194 -128.97639847 112.42135048 C-130.90517019 112.42686831 -132.83393469 112.43764298 -134.76264572 112.45390892 C-159.49594088 112.65409183 -159.49594088 112.65409183 -169.203125 103.32421875 C-175.17689706 96.49705068 -176.63194186 89.04429137 -176.1171875 80.13671875 C-172.24939583 55.64994027 -158.46902831 30.36928841 -138.32421875 15.578125 C-131.10962514 10.86629307 -124.61486596 10.75432322 -116.1171875 11.13671875 C-115.9109375 10.31171875 -115.7046875 9.48671875 -115.4921875 8.63671875 C-112.73738924 1.62450499 -108.70539418 -3.31917791 -101.9296875 -6.70703125 C-73.05891711 -18.57612574 -24.73335912 -23.27063358 0 0 Z M-85.2421875 7.44921875 C-86.30796021 7.73188599 -86.30796021 7.73188599 -87.39526367 8.02026367 C-92.16510784 9.43268495 -94.96260384 11.30742113 -98.1171875 15.13671875 C-99.56129571 18.30962062 -99.56129571 18.30962062 -99.1171875 22.13671875 C-98.05245609 24.53991009 -98.05245609 24.53991009 -96.57421875 27.0546875 C-96.02548096 28.02857422 -95.47674316 29.00246094 -94.91137695 30.00585938 C-94.31929443 31.03904297 -93.72721191 32.07222656 -93.1171875 33.13671875 C-92.53348389 34.16990234 -91.94978027 35.20308594 -91.34838867 36.26757812 C-89.44796617 39.62554205 -87.53516277 42.97626483 -85.6171875 46.32421875 C-85.27391418 46.9236731 -84.93064087 47.52312744 -84.57696533 48.14074707 C-82.44225494 51.86729264 -80.30393328 55.59175066 -78.16369629 59.31512451 C-77.14413654 61.08981019 -76.12609761 62.86536014 -75.10839844 64.64111328 C-73.24220194 67.89307596 -71.36850946 71.14059007 -69.4921875 74.38671875 C-68.93724609 75.35504639 -68.38230469 76.32337402 -67.81054688 77.32104492 C-64.57940191 82.88672157 -61.11773471 88.0934089 -57.1171875 93.13671875 C-53.41291244 92.72561244 -53.41291244 92.72561244 -50.56030273 90.48999023 C-50.12403564 89.77399658 -49.68776855 89.05800293 -49.23828125 88.3203125 C-48.73280762 87.50288574 -48.22733398 86.68545898 -47.70654297 85.84326172 C-47.18205566 84.95010254 -46.65756836 84.05694336 -46.1171875 83.13671875 C-45.57594238 82.22680176 -45.03469727 81.31688477 -44.47705078 80.37939453 C-42.68800317 77.33220599 -40.93076543 74.26837486 -39.1796875 71.19921875 C-38.19780498 69.48726582 -37.21591672 67.77531614 -36.23370361 66.06355286 C-35.21531588 64.28798324 -34.19822157 62.5116767 -33.18115234 60.73535156 C-31.12264052 57.1429294 -29.05301188 53.55699757 -26.98046875 49.97265625 C-26.64420975 49.39094162 -26.30795074 48.80922699 -25.96150208 48.20988464 C-24.3511643 45.42425146 -22.74035168 42.63889359 -21.12915039 39.85375977 C-19.98093157 37.86540402 -18.83565096 35.87534753 -17.69384766 33.88330078 C-16.66595498 32.09268564 -15.62955432 30.30691954 -14.58349609 28.52685547 C-14.12539551 27.73424316 -13.66729492 26.94163086 -13.1953125 26.125 C-12.59444824 25.09886597 -12.59444824 25.09886597 -11.98144531 24.05200195 C-10.48373176 20.73291641 -10.95543977 18.49287885 -12.1171875 15.13671875 C-16.48127746 8.66582673 -24.15820004 7.12579784 -31.43310547 5.67480469 C-49.88162085 2.32841385 -67.08095654 2.40628487 -85.2421875 7.44921875 Z M-139.3671875 43.51171875 C-140.98943614 45.69610192 -142.55518951 47.90761746 -144.1171875 50.13671875 C-144.6946875 50.94882813 -145.2721875 51.7609375 -145.8671875 52.59765625 C-151.71553647 61.52248046 -158.49095143 76.21202465 -157.1171875 87.13671875 C-155.34964758 90.12325172 -154.19814199 91.59624151 -151.1171875 93.13671875 C-149.07052848 93.24365311 -147.02036126 93.28558986 -144.97094727 93.29785156 C-143.67943253 93.30745911 -142.38791779 93.31706665 -141.05726624 93.32696533 C-139.64104386 93.33181256 -138.22481945 93.33609157 -136.80859375 93.33984375 C-135.36132301 93.34559465 -133.9140523 93.35135239 -132.46678162 93.3571167 C-129.43121994 93.36762601 -126.39568474 93.37346933 -123.36010742 93.37695312 C-119.46818543 93.38244215 -115.57661254 93.40647877 -111.68480015 93.43492508 C-108.69511385 93.45353623 -105.70551197 93.4587562 -102.71577263 93.460289 C-101.28082302 93.46331881 -99.845875 93.47135842 -98.41098213 93.48447418 C-96.40499903 93.50150325 -94.39887226 93.49781418 -92.39282227 93.49316406 C-90.67978661 93.49863251 -90.67978661 93.49863251 -88.93214417 93.50421143 C-86.11308417 93.36319718 -86.11308417 93.36319718 -84.21598816 91.76315308 C-82.87508207 90.13406041 -82.87508207 90.13406041 -83.26074219 87.75732422 C-84.17166245 84.97003285 -85.31453217 82.7226675 -86.8203125 80.20703125 C-87.38234375 79.25763672 -87.944375 78.30824219 -88.5234375 77.33007812 C-89.131875 76.31751953 -89.7403125 75.30496094 -90.3671875 74.26171875 C-91.64481881 72.10901558 -92.92081888 69.95534355 -94.1953125 67.80078125 C-94.84693359 66.70024414 -95.49855469 65.59970703 -96.16992188 64.46582031 C-99.77481147 58.30279692 -103.23587703 52.05712261 -106.67675781 45.80126953 C-111.8946338 35.63079829 -111.8946338 35.63079829 -120.3671875 28.63671875 C-128.84174801 29.76666015 -134.38589596 37.06179042 -139.3671875 43.51171875 Z M2.06860352 35.78027344 C1.51358154 36.77961914 0.95855957 37.77896484 0.38671875 38.80859375 C-0.24806396 39.93700684 -0.88284668 41.06541992 -1.53686523 42.22802734 C-2.20971794 43.44745583 -2.88231986 44.66702273 -3.5546875 45.88671875 C-4.60964794 47.77607018 -5.66796437 49.66351256 -6.72669983 51.55075073 C-7.44786741 52.83649452 -8.16786113 54.1228974 -8.88670349 55.40994263 C-11.27838602 59.68214132 -13.73607591 63.90711031 -16.2421875 68.11328125 C-16.88486572 69.19383789 -17.52754395 70.27439453 -18.18969727 71.38769531 C-19.40743898 73.42752029 -20.63161201 75.46352346 -21.86303711 77.49511719 C-22.40968018 78.41583008 -22.95632324 79.33654297 -23.51953125 80.28515625 C-23.99898193 81.08099121 -24.47843262 81.87682617 -24.97241211 82.69677734 C-26.28860165 85.50206595 -26.73374038 88.0741324 -27.1171875 91.13671875 C-23.59975346 93.48167477 -22.14489416 93.39417402 -17.98095703 93.41137695 C-16.71599396 93.42090897 -15.45103088 93.43044098 -14.1477356 93.44026184 C-12.76515678 93.44000038 -11.38257795 93.43906319 -10 93.4375 C-8.58136876 93.4413876 -7.16273868 93.44572241 -5.74411011 93.45048523 C-2.76996082 93.45794754 0.20406976 93.45765656 3.17822266 93.45239258 C6.98363809 93.44660402 10.78856584 93.46351347 14.59390068 93.48673725 C17.52449368 93.50149448 20.45496984 93.50234351 23.38559341 93.49922752 C24.7881784 93.49973994 26.19077006 93.50496284 27.59331894 93.51503944 C29.55810562 93.52742082 31.52299086 93.51866008 33.48779297 93.5090332 C34.60459442 93.50966263 35.72139587 93.51029205 36.87203979 93.51094055 C40.8958563 93.01080321 43.68409132 91.60787656 46.2578125 88.44921875 C49.20838341 77.53210639 41.00761137 62.4125063 35.77734375 53.1484375 C31.60085466 46.50911154 26.64955169 40.45986262 20.8828125 35.13671875 C20.32722656 34.59917969 19.77164063 34.06164062 19.19921875 33.5078125 C15.67317369 30.2196807 15.67317369 30.2196807 11.2578125 28.51171875 C7.05423295 29.6179239 4.48881672 32.25368636 2.06860352 35.78027344 Z " fill="#E20024" transform="translate(237.1171875,105.86328125)"/>
</svg>
