<?xml version="1.0" encoding="UTF-8" ?>
<!-- Created with Inkscape (http://www.inkscape.org/) -->

<svg
   version="1.1"
   id="svg2"
   width="89.360001"
   height="26.586666"
   viewBox="0 0 89.360001 26.586666"
   sodipodi:docname="seguros-bolivar.svg"
   xmlns:inkscape="http://www.inkscape.org/namespaces/inkscape"
   xmlns:sodipodi="http://sodipodi.sourceforge.net/DTD/sodipodi-0.dtd"
   xmlns="http://www.w3.org/2000/svg"
   xmlns:svg="http://www.w3.org/2000/svg">
  <defs
     id="defs6" />
  <sodipodi:namedview
     id="namedview4"
     pagecolor="#ffffff"
     bordercolor="#000000"
     borderopacity="0.25"
     inkscape:showpageshadow="2"
     inkscape:pageopacity="0.0"
     inkscape:pagecheckerboard="0"
     inkscape:deskcolor="#d1d1d1" />
  <g
     id="g8"
     inkscape:groupmode="layer"
     inkscape:label="ink_ext_XXXXXX"
     transform="matrix(1.3333333,0,0,-1.3333333,0,26.586667)">
    <g
       id="g10"
       transform="scale(0.1)">
      <path
         d="m 146.246,118.328 c 2.109,0.18 4.668,0.352 6.914,0.352 1.543,0 4.492,-0.172 6.387,-0.352 v 0.617 l -3.524,1.192 c -1.144,0.351 -1.277,1.367 -1.277,7.09 v 5.07 h 3.395 c 2.734,-3.567 6.648,-9.211 9.472,-13.969 1.102,0.09 2.2,0.18 3.262,0.18 1.012,0 2.07,-0.09 3.086,-0.18 v 0.617 c -2.473,0.442 -2.691,0.75 -5.246,4.578 l -6.082,9.082 c 4.051,0.657 7.226,2.778 7.226,7.231 0,4.402 -3.789,6.773 -9.605,6.773 -3.129,0 -5.641,-0.347 -7.93,-0.347 -2.379,0 -4.449,0.172 -6.078,0.347 v -0.613 l 3.699,-1.23 c 0.969,-0.313 1.102,-0.618 1.102,-4.754 v -15.957 c 0,-3.391 -0.176,-3.567 -1.414,-3.965 l -3.387,-1.145 v -0.617"
         style="fill:#000000;fill-opacity:1;fill-rule:nonzero;stroke:none"
         id="path12" />
      <path
         d="m 194.98,117.805 c 8.77,0 14.016,6.914 14.016,15.633 0,8.027 -5.203,13.71 -13.308,13.71 -8.899,0 -14.411,-6.171 -14.411,-14.941 0,-7.141 4.539,-14.402 13.703,-14.402"
         style="fill:#000000;fill-opacity:1;fill-rule:nonzero;stroke:none"
         id="path14" />
      <path
         d="m 9.70703,42.9102 c 0,-6.8555 -0.35547,-7.2071 -2.85156,-8.0079 L 0,32.5781 v -1.2383 c 4.00781,0.3477 7.56641,0.711 11.7539,0.711 5.5195,0 12.4688,-0.711 19.2383,-0.711 12.8203,0 19.2383,6.9415 19.2383,15.1329 0,10.5078 -10.2461,13.8086 -19.0625,14.4336 v 0.1796 c 8.375,0.8008 16.3867,5.1641 16.3867,12.5547 0,10.6836 -9.6172,14.875 -19.1445,14.875 -5.0743,0 -11.8477,-0.7109 -15.4063,-0.7109 -3.5664,0 -8.10546,0.3476 -13.0039,0.7109 v -1.25 l 7.48047,-2.4922 c 1.95703,-0.625 2.22656,-1.25 2.22656,-9.6171 V 42.9102"
         style="fill:#000000;fill-opacity:1;fill-rule:nonzero;stroke:none"
         id="path16" />
      <path
         d="m 96.2148,30.2617 c 17.7262,0 28.3202,13.9883 28.3202,31.625 0,16.2071 -10.508,27.6914 -26.8944,27.6914 -17.9883,0 -29.1211,-12.4687 -29.1211,-30.1914 0,-14.4258 9.1719,-29.125 27.6953,-29.125"
         style="fill:#000000;fill-opacity:1;fill-rule:nonzero;stroke:none"
         id="path18" />
      <path
         d="m 292.418,31.3398 c 3.297,0.3477 6.59,0.711 9.887,0.711 3.558,0 7.035,-0.3633 10.508,-0.711 v 1.2383 l -7.661,2.7657 c 1.25,4.9882 2.676,10.2421 5.078,14.7851 3.739,0.0859 7.391,0.1758 11.133,0.1758 3.739,0 7.567,-0.0899 11.309,-0.1758 1.25,-2.6797 4.101,-11.0469 5.164,-14.7851 -2.664,-1.0665 -6.496,-2.2305 -8.727,-2.7657 v -1.2383 c 4.012,0.3477 7.926,0.711 11.938,0.711 4.719,0 9.348,-0.3633 14.07,-0.711 v 1.2383 l -7.48,2.5899 c -7.574,18.0742 -15.586,36.5976 -22.711,55.125 h -1.961 c -6.41,-16.0352 -16.027,-36.5157 -23.781,-54.7774 -2.133,-1.1523 -4.629,-2.1289 -6.766,-2.9375 v -1.2383"
         style="fill:#000000;fill-opacity:1;fill-rule:nonzero;stroke:none"
         id="path20" />
      <path
         d="m 361.277,31.3398 c 4.274,0.3477 9.442,0.711 13.981,0.711 3.121,0 9.09,-0.3633 12.918,-0.711 v 1.2383 l -7.125,2.4102 c -2.317,0.7148 -2.582,2.7539 -2.582,14.3359 v 10.2461 h 6.855 c 5.52,-7.2187 13.449,-18.6133 19.149,-28.2305 2.226,0.1719 4.453,0.3477 6.586,0.3477 2.05,0 4.191,-0.1758 6.238,-0.3477 l 0.004,1.2383 c -4.992,0.8985 -5.434,1.5157 -10.602,9.2657 L 394.41,60.1953 c 8.192,1.3281 14.606,5.6055 14.606,14.6016 0,8.9023 -7.664,13.7187 -19.418,13.7187 -6.321,0 -11.399,-0.7109 -16.028,-0.7109 -4.808,0 -8.996,0.3476 -12.293,0.7109 v -1.25 l 7.485,-2.4922 c 1.957,-0.625 2.222,-1.25 2.222,-9.6171 V 42.9102 c 0,-6.8555 -0.355,-7.2071 -2.847,-8.0079 l -6.86,-2.3242 v -1.2383"
         style="fill:#000000;fill-opacity:1;fill-rule:nonzero;stroke:none"
         id="path22" />
      <path
         d="m 11.918,126.211 h 0.6211 l 1.5,-5.684 c 1.3164,-0.742 3.3867,-1.007 4.4922,-1.007 3.5234,0 6.7421,1.582 6.7421,5.683 0,6.25 -13.7929,5.727 -13.7929,14.008 0,5.332 4.9375,7.937 9.6953,7.937 1.8476,0 4.668,-0.578 6.5195,-1.418 l -0.2617,-6.035 h -0.4844 l -1.7187,4.895 c -1.5,0.578 -2.9571,0.84 -4.4532,0.84 -2.7734,0 -5.332,-2.16 -5.332,-5.117 0,-6.915 13.793,-5.157 13.793,-14.278 0,-3.828 -2.8672,-8.23 -11.5469,-8.23 -2.1094,0 -4.0039,0.261 -6.5195,1.226 l 0.7461,7.18"
         style="fill:#000000;fill-opacity:1;fill-rule:nonzero;stroke:none"
         id="path24" />
      <path
         d="m 42.8086,140.012 c 0,4.136 -0.1328,4.441 -1.1055,4.754 l -3.6992,1.23 v 0.613 c 3.6602,-0.175 7.0078,-0.347 10.3555,-0.347 4.1836,0 8.3242,0.172 12.2031,0.347 -0.0391,-1.093 -0.1289,-2.683 -0.1289,-3.343 0,-0.661 0.0898,-2.164 0.1289,-3.168 h -0.6172 l -1.1406,3.3 c -0.4414,1.231 -0.7969,1.231 -5.8594,1.231 -2.5586,0 -4.5859,-0.039 -6.2187,-0.086 -0.086,-1.543 -0.2188,-3.164 -0.2188,-5.023 v -5.418 h 4.582 c 5.3321,0 5.8204,0.086 6.2149,1.054 l 1.1484,3.137 h 0.6133 c -0.043,-1.684 -0.0859,-3.352 -0.0859,-4.984 0,-1.805 0.0429,-3.485 0.0859,-5.332 h -0.6133 l -1.1484,3.351 c -0.3945,0.969 -0.8828,1.055 -6.2149,1.055 h -4.582 v -5.992 c 0,-2.028 0.1328,-4.055 0.2188,-5.903 2.0742,-0.05 4.1484,-0.175 6.1289,-0.175 4.7109,0 5.3711,0.039 5.8125,0.574 0.5312,0.656 1.0156,2.074 1.8047,4.668 h 0.6211 c -0.086,-1.278 -0.2618,-2.594 -0.2618,-3.875 l -0.0078,-3.352 c -2.2851,0.18 -9.0703,0.352 -11.5429,0.352 -3.875,0 -8.1055,-0.172 -11.2774,-0.352 v 0.617 l 3.3906,1.145 c 1.2383,0.398 1.4141,0.574 1.4141,3.965 v 15.957"
         style="fill:#000000;fill-opacity:1;fill-rule:nonzero;stroke:none"
         id="path26" />
      <path
         d="m 90.6094,128.152 c 0,0.703 -0.1758,0.969 -2.1563,1.723 l -2.6445,1.012 v 0.617 c 2.1172,-0.086 4.2305,-0.352 6.3437,-0.352 1.9844,0 3.9258,0.266 5.8594,0.352 v -0.617 l -2.7734,-1.328 c -0.7891,-0.387 -0.9258,-0.829 -0.9258,-1.754 v -6.789 c 0,-0.442 0.0469,-1.192 0.0859,-1.985 -1.6679,-0.523 -5.332,-1.226 -8.2812,-1.226 -10.043,0 -16.2109,5.855 -16.2109,14.136 0,10.09 9.4257,15.207 17.2265,15.207 2.4219,0 4.3633,-0.222 6.2578,-0.625 -0.0468,-1.14 -0.0898,-2.285 -0.0898,-3.386 0,-1.282 0.043,-2.563 0.0898,-3.836 h -0.6211 c -0.6172,1.894 -1.4531,4.324 -2.1093,5.152 -0.4454,0.574 -3.086,0.977 -4.8047,0.977 -6.211,0 -11.4571,-4.278 -11.4571,-13.086 0,-7.578 4.4922,-12.824 11.0625,-12.824 1.8477,0 3.5196,0.214 5.0625,0.742 0.0469,0.668 0.086,1.332 0.086,1.633 v 6.257"
         style="fill:#000000;fill-opacity:1;fill-rule:nonzero;stroke:none"
         id="path28" />
      <path
         d="m 137.133,145.996 -1.942,-0.742 c -1.144,-0.488 -1.757,-0.891 -1.808,-1.809 -0.086,-2.468 0,-6.082 -0.086,-13.925 -0.09,-8.543 -4.274,-11.715 -10.84,-11.715 -6.387,0 -10.836,2.769 -10.836,9.508 v 12.382 c 0,3.703 -0.133,4.582 -1.367,5.071 l -3.168,1.23 v 0.613 c 2.156,-0.175 4.227,-0.347 6.297,-0.347 2.336,0 4.625,0.172 6.965,0.347 v -0.613 l -2.032,-0.742 c -2.421,-0.93 -2.773,-1.106 -2.863,-2.649 -0.129,-2.593 -0.129,-6.386 -0.129,-13.171 0,-5.645 1.274,-9.344 8.278,-9.344 4.628,0 7.406,2.871 7.406,8.152 0,5.418 -0.047,12.422 -0.399,15.469 -0.086,0.793 -0.75,1.141 -1.937,1.543 l -2.426,0.742 v 0.613 c 1.895,-0.175 3.793,-0.347 5.731,-0.347 1.671,0 3.39,0.172 5.156,0.347 v -0.613"
         style="fill:#000000;fill-opacity:1;fill-rule:nonzero;stroke:none"
         id="path30" />
      <path
         d="m 154.746,144.766 c 1.324,0 2.641,0.039 4.055,0.039 4.144,0 6.828,-1.668 6.828,-5.547 0,-4.844 -3.789,-5.508 -7.883,-5.508 h -3 v 11.016"
         style="fill:#ffffff;fill-opacity:1;fill-rule:nonzero;stroke:none"
         id="path32" />
      <path
         d="m 195.426,119.258 c -6.438,0 -9.656,5.984 -9.656,15.066 0,6.25 3.308,11.367 9.429,11.367 7.274,0 9.297,-7.011 9.297,-14.363 0,-5.996 -2.375,-12.07 -9.07,-12.07"
         style="fill:#ffffff;fill-opacity:1;fill-rule:nonzero;stroke:none"
         id="path34" />
      <path
         d="m 219.488,126.211 h 0.614 l 1.5,-5.684 c 1.324,-0.742 3.394,-1.007 4.496,-1.007 3.527,0 6.738,1.582 6.738,5.683 0,6.25 -13.789,5.727 -13.789,14.008 0,5.332 4.933,7.937 9.695,7.937 1.848,0 4.668,-0.578 6.516,-1.418 l -0.262,-6.035 h -0.484 l -1.719,4.895 c -1.5,0.578 -2.953,0.84 -4.449,0.84 -2.778,0 -5.332,-2.16 -5.332,-5.117 0,-6.915 13.789,-5.157 13.789,-14.278 0,-3.828 -2.86,-8.23 -11.543,-8.23 -2.113,0 -4.008,0.261 -6.524,1.226 l 0.754,7.18"
         style="fill:#000000;fill-opacity:1;fill-rule:nonzero;stroke:none"
         id="path36" />
      <path
         d="m 523.617,30.8203 h 7.367 c 0,0 5.696,19.4219 33.496,32.1485 0,0 -21.433,-1.668 -40.863,-32.1485"
         style="fill:#000000;fill-opacity:1;fill-rule:nonzero;stroke:none"
         id="path38" />
      <path
         d="m 596.637,77.043 c 0,0 16.746,-27.4727 -21.106,-45.8907 h 7.367 c 0,0 42.204,19.4219 13.739,45.8907"
         style="fill:#000000;fill-opacity:1;fill-rule:nonzero;stroke:none"
         id="path40" />
      <path
         d="m 569.508,0 c 0,0 68.66,54.2656 86.746,95.4609 0,0 25.793,46.2191 -33.156,37.8481 0,0 33.488,15.746 45.211,-4.024 0,0 12.73,-22.097 -23.11,-65.3123 0,0 -33.156,-41.1914 -75.691,-63.9727"
         style="fill:#000000;fill-opacity:1;fill-rule:nonzero;stroke:none"
         id="path42" />
      <path
         d="m 609.699,163.789 c 0,0 -7.371,-13.73 13.735,-34.504 0,0 -13.399,23.449 -13.735,34.504"
         style="fill:#000000;fill-opacity:1;fill-rule:nonzero;stroke:none"
         id="path44" />
      <path
         d="m 586.926,174.504 7.699,-3.012 c 0,0 10.387,2.348 18.086,-1.347 0,0 -0.668,10.05 -25.785,4.359"
         style="fill:#000000;fill-opacity:1;fill-rule:nonzero;stroke:none"
         id="path46" />
      <path
         d="m 576.207,184.887 9.043,-2.348 c 0,0 14.398,4.356 27.797,-1.672 0,0 -11.051,12.727 -36.84,4.02"
         style="fill:#000000;fill-opacity:1;fill-rule:nonzero;stroke:none"
         id="path48" />
      <path
         d="m 517.258,79.7188 c 0,0 13.058,8.7109 11.383,34.8322 0,0 -6.7,-26.7971 -11.383,-34.8322"
         style="fill:#000000;fill-opacity:1;fill-rule:nonzero;stroke:none"
         id="path50" />
      <path
         d="M 549.078,129.285 C 496.156,117.898 516.25,93.4453 516.25,93.4453 c -6.699,23.1177 32.828,35.8397 32.828,35.8397"
         style="fill:#000000;fill-opacity:1;fill-rule:nonzero;stroke:none"
         id="path52" />
      <path
         d="m 583.906,122.926 c -1.379,0.765 -2.703,1.644 -3.984,2.621 0.668,4.199 0.922,8.68 0.637,13.457 0,0 -5.145,8.719 -18.786,11.25 -5.488,11.687 -8.007,22.242 -8.007,22.242 l -9.379,3.344 c 10.715,30.484 62.297,15.41 62.297,15.41 -9.043,11.055 -34.164,8.035 -34.164,8.035 -35.836,-4.355 -34.165,-24.441 -34.165,-24.441 3.688,-4.024 10.047,-6.035 10.047,-6.035 1.926,-6.758 4.368,-12.696 7.067,-17.903 -8.578,0.254 -19.692,-1.843 -33.86,-8.554 0,0 -51.996,-21.864 -19.621,-62.6332 -18.273,-9.7891 -41.679,-28.2657 -11.523,-48.8985 0,0 -27.805,26.7969 27.797,56.2695 0,0 -7.016,-2.5 -15.332,-6.8671 -3.688,5.4296 -21.953,36.1953 20.355,58.1053 0,0 17.57,9.824 35.399,6.914 5.754,-9.324 12.152,-15.75 17.109,-19.844 -1.57,-10.23 -7.398,-25.73 -26.383,-40.9957 0,0 -11.055,3.6915 -16.078,9.043 0,0 3.016,-9.375 16.078,-13.0547 0,0 24.09,14.2266 29.977,42.2544 2.957,-2.118 4.855,-3.071 4.855,-3.071 15.742,4.692 16.41,19.086 16.41,19.086 -5.023,-11.387 -16.746,-15.734 -16.746,-15.734"
         style="fill:#000000;fill-opacity:1;fill-rule:nonzero;stroke:none"
         id="path54" />
      <path
         d="m 565.211,143.555 c 3.684,-1.328 7.293,-3.34 10.66,-6.231 0,0 0.727,-3.23 0.313,-8.547 -4.313,4.207 -7.961,9.426 -10.973,14.778"
         style="fill:#ffffff;fill-opacity:1;fill-rule:nonzero;stroke:none"
         id="path56" />
      <path
         d="m 576.539,64.6484 c 0,0 -19.094,1.0039 -14.398,19.0899 0,0 6.023,21.4377 29.468,17.4137 0,0 18.426,-9.7184 0.34,-27.4606 0,0 13.395,18.0859 -2.351,23.4453 0,0 -17.746,3.0083 -24.114,-15.7422 0,0 -4.015,-10.7187 11.055,-16.7461"
         style="fill:#000000;fill-opacity:1;fill-rule:nonzero;stroke:none"
         id="path58" />
      <path
         d="m 206.422,92.1094 h 3.699 l 13.438,8.8676 c 0,0 5.214,3.359 2.304,6.211 -2.859,2.781 -7.734,-2.825 -7.734,-2.825 L 206.422,92.1094"
         style="fill:#000000;fill-opacity:1;fill-rule:nonzero;stroke:none"
         id="path60" />
      <path
         d="m 17.1875,59.6563 h 6.3242 c 9.9727,0 18.168,-3.2032 18.168,-12.9063 0,-10.5195 -8.8203,-12.4727 -17.457,-12.4727 -2.2266,0 -4.3633,0.1758 -6.7657,0.2657 -0.1836,2.7617 -0.2695,5.4258 -0.2695,8.1914 v 16.9219"
         style="fill:#ffffff;fill-opacity:1;fill-rule:nonzero;stroke:none"
         id="path62" />
      <path
         d="m 17.1875,74.707 c 0,4.0039 0.0859,6.5938 0.2695,10.6836 3.0274,0.1836 4.8946,0.1836 7.7422,0.1836 7.5742,0 13.8086,-3.1133 13.8086,-11.8437 0,-10.1563 -9.0859,-11.1328 -14.9609,-11.1328 H 17.1875 V 74.707"
         style="fill:#ffffff;fill-opacity:1;fill-rule:nonzero;stroke:none"
         id="path64" />
      <path
         d="m 97.1055,33.2031 c -13,0 -19.5039,12.1172 -19.5039,30.4571 0,12.6484 6.6797,22.9804 19.0625,22.9804 14.6909,0 18.7889,-14.1601 18.7889,-29.0351 0,-12.1055 -4.808,-24.4024 -18.3475,-24.4024"
         style="fill:#ffffff;fill-opacity:1;fill-rule:nonzero;stroke:none"
         id="path66" />
      <path
         d="m 151,75.1563 c 0,8.3671 -0.262,8.9921 -2.227,9.6171 l -7.48,2.4922 v 1.25 c 4.277,-0.3633 8.645,-0.7109 13.184,-0.7109 4.543,0 8.906,0.3476 14.336,0.7109 v -1.25 l -8.106,-2.4922 c -1.957,-0.625 -2.227,-1.25 -2.227,-10.332 V 40.8672 35.3438 h 17.282 c 4.453,0 5.074,0.7109 6.679,4.2734 l 2.758,6.0586 h 1.071 l -0.711,-14.336 c -8.641,0.3477 -20.575,0.711 -25.914,0.711 -6.059,0 -12.204,-0.3633 -18.352,-0.711 v 1.2383 l 6.859,2.3242 c 2.496,0.8008 2.848,1.1524 2.848,8.0079 v 32.2461"
         style="fill:#000000;fill-opacity:1;fill-rule:nonzero;stroke:none"
         id="path68" />
      <path
         d="m 199.047,32.5781 6.855,2.3242 c 2.227,0.8008 2.496,1.1524 2.582,8.0079 0.094,5.3437 0.27,10.7812 0.27,16.1211 0,5.3437 -0.176,10.7812 -0.27,16.125 -0.179,8.3671 -0.265,8.9921 -1.957,9.6171 l -7.48,2.4922 v 1.25 c 4.273,-0.3633 8.637,-0.7109 13.625,-0.7109 4.453,0 8.816,0.3476 13.269,0.7109 v -1.25 l -7.48,-2.4922 c -1.688,-0.625 -1.781,-1.25 -1.961,-9.6171 -0.09,-5.3438 -0.266,-10.7813 -0.266,-16.125 0,-5.3399 0.176,-10.7774 0.266,-16.1211 0.094,-6.8555 0.359,-7.2071 2.586,-8.0079 l 6.855,-2.3242 v -1.2383 c -4.183,0.3477 -9.347,0.711 -13.269,0.711 -4.453,0 -9.621,-0.3633 -13.625,-0.711 v 1.2383"
         style="fill:#000000;fill-opacity:1;fill-rule:nonzero;stroke:none"
         id="path70" />
      <path
         d="m 238.043,88.5156 c 4.102,-0.3633 8.285,-0.7109 12.383,-0.7109 3.738,0 7.566,0.3476 11.308,0.7109 v -1.25 l -3.117,-0.8867 c -4.097,-1.1641 -4.902,-1.6055 -4.902,-2.5898 0,-1.8633 11.406,-29.5625 15.586,-39.0039 5.433,12.9961 10.422,25.8281 13.543,35.7148 0.531,1.5977 0.89,2.5742 0.89,3.5625 0,0.9766 -2.761,1.9531 -6.679,3.2031 v 1.25 c 3.379,-0.3633 6.769,-0.7109 10.148,-0.7109 2.762,0 5.434,0.3476 8.106,0.7109 v -1.25 c -3.829,-0.9765 -5.075,-1.9609 -6.5,-4.9922 -5.61,-12.1953 -12.645,-29.7461 -20.84,-52.0117 h -2.047 c -5.789,16.211 -14.871,38.6563 -20.488,51.5742 -1.426,3.293 -2.043,3.5547 -4.895,4.543 l -2.496,0.8867 v 1.25"
         style="fill:#000000;fill-opacity:1;fill-rule:nonzero;stroke:none"
         id="path72" />
      <path
         d="m 331.52,53.7773 h -20.04 l 10.239,23.6055 z"
         style="fill:#ffffff;fill-opacity:1;fill-rule:nonzero;stroke:none"
         id="path74" />
      <path
         d="m 378.469,84.7734 c 2.668,0 5.344,0.0899 8.191,0.0899 8.375,0 13.805,-3.3906 13.805,-11.2227 0,-9.8008 -7.656,-11.1289 -15.945,-11.1289 h -6.051 v 22.2617"
         style="fill:#ffffff;fill-opacity:1;fill-rule:nonzero;stroke:none"
         id="path76" />
    </g>
  </g>
</svg>
