<?xml version="1.0" encoding="UTF-8" standalone="no"?>
<svg
   version="1.1"
   width="612pt"
   height="283.4646pt"
   id="svg54"
   viewBox="0 -35 612 283.4646"
   sodipodi:docname="seguros-del-estado-s-a-seeklogo.cdr"
   xmlns:inkscape="http://www.inkscape.org/namespaces/inkscape"
   xmlns:sodipodi="http://sodipodi.sourceforge.net/DTD/sodipodi-0.dtd"
   xmlns="http://www.w3.org/2000/svg"
   xmlns:svg="http://www.w3.org/2000/svg">
  <defs
     id="defs58" />
  <sodipodi:namedview
     id="namedview56"
     pagecolor="#ffffff"
     bordercolor="#000000"
     borderopacity="0.25"
     inkscape:showpageshadow="2"
     inkscape:pageopacity="0.0"
     inkscape:pagecheckerboard="0"
     inkscape:deskcolor="#d1d1d1"
     inkscape:document-units="pt" />
  <g
     id="Layer1000">
    <path
       d="m 24.7397,83.0787 v 117.3072 q 0,13.8552 13.8551,13.8552 h 170.8807 q 13.8552,0 13.8552,-13.8552 V 83.0787 q 0,-13.8552 -13.8552,-13.8552 H 38.5948 q -13.8551,0 -13.8551,13.8552 z"
       style="fill:#082d76;fill-rule:evenodd"
       id="path2" />
    <g
       id="Layer1001">
      <path
         d="m 123.5279,101.2188 c 4.1736,0 7.5587,3.3851 7.5587,7.5587 0,4.1736 -3.3851,7.5588 -7.5587,7.5588 -4.1736,0 -7.5588,-3.3852 -7.5588,-7.5588 0,-4.1736 3.3852,-7.5587 7.5588,-7.5587 z"
         style="fill:#f14e17;fill-rule:evenodd"
         id="path4" />
      <path
         d="m 76.0344,144.4204 v -2.7078 c 0,0 17.0922,-6.6522 24.4174,-9.5008 7.3251,-2.8487 14.6503,-9.767 14.6503,-9.767 0,0 7.3925,-9.7775 16.6852,1.2209 10.0585,11.9036 24.084,14.7509 36.5587,20.2713 l 0.0191,2.0475 z"
         style="fill:#f14e17;fill-rule:evenodd"
         id="path6" />
      <path
         d="m 43.478,135.0604 c -1.763,0 -4.4085,0 -5.2904,0 -0.8818,0 -6.1043,38.975 75.2867,48.335 -0.9392,11.9539 -20.5325,14.0261 -26.4521,14.8351 l 0.8139,4.0695 h 66.0358 c 0,-1.3567 0,-3.3922 0,-4.0695 -2.9789,0.3588 -26.1542,-3.7546 -25.7472,-15.1494 18.7348,0.8239 48.393,-6.6259 58.8125,-14.1556 10.4194,-7.5298 29.3835,-23.5737 17.3837,-40.4747 -10.8187,-15.2385 -37.229,4.0341 -22.4781,14.7487 7.3952,5.3726 12.2645,-1.1692 11.4506,-4.8318 -0.8217,-1.0878 -2.4028,-0.6037 -3.2938,0.1734 -3.2804,2.8615 -8.5029,-2.9031 -5.1354,-6.6967 5.8219,-6.558 15.1514,1.0709 14.0679,7.0556 -1.0836,5.9847 -4.8828,10.2 -14.6476,9.9969 -9.7648,-0.2031 -88.4805,0.5931 -132.6674,-1.2209 -5.1863,-0.2123 -7.6479,-5.8169 -8.1391,-12.6156 z"
         style="fill:#f14e17;fill-rule:evenodd"
         id="path8" />
      <path
         d="m 40.0426,129.9668 c 1.2924,-10.1222 3.7773,-18.5112 7.166,-25.3431 5.0363,-10.1526 12.0678,-16.8925 20.1651,-20.8007 8.0832,-3.9018 17.2103,-4.967 26.4606,-3.7864 7.3917,0.9441 14.8599,3.3214 21.931,6.829 l 0.0757,0.0375 c 3.2677,1.6222 6.7803,3.4418 10.4464,5.34 1.9958,1.0333 4.037,2.0907 6.1121,3.1544 l 1.6413,0.1621 c 25.5716,2.5168 50.6174,4.9818 69.8462,-11.687 l 2.153,-1.8671 -0.0949,2.8473 c -0.7806,23.3359 -11.2312,30.7757 -25.6282,30.2944 -14.3071,-0.4784 -32.4588,-9.0421 -48.6336,-17.3186 -32.7511,-3.2053 -66.1327,-5.6301 -89.3391,32.9337 l -3.0511,5.0689 z m 9.3996,-24.2404 c -2.6087,5.26 -4.6662,11.486 -6.0286,18.7709 C 65.6808,92.0301 95.7063,92.057 125.7417,94.7648 l -0.5952,-0.3079 c -3.6463,-1.8882 -7.1405,-3.698 -10.4081,-5.3201 l -0.0758,-0.0375 C 107.8251,85.7078 100.6237,83.4104 93.5215,82.5038 84.7341,81.382 76.0861,82.3842 68.4566,86.0666 60.8405,89.7426 54.2125,96.1109 49.4422,105.7264 Z m 89.0914,-7.2296 c 14.3871,7.151 29.7063,13.7572 41.8611,14.1634 12.3644,0.4133 21.495,-5.8212 22.9134,-25.0932 -18.4517,14.4034 -41.2709,13.179 -64.7745,10.9298 z"
         style="fill:#f14e17;fill-rule:evenodd"
         id="path10" />
    </g>
    <path
       d="m 579.8064,213.3188 v -6.6525 h 7.454 v 6.6525 z"
       style="fill:#082d76;fill-rule:evenodd"
       id="path13" />
    <path
       d="m 525.4611,213.3188 v -6.6525 h 7.454 v 6.6525 z"
       style="fill:#082d76;fill-rule:evenodd"
       id="path15" />
    <path
       d="m 487.2743,202.0256 7.6446,-0.6708 c 0.4534,2.2957 1.3853,3.9772 2.7992,5.0526 1.4036,1.0666 3.2967,1.6087 5.6875,1.6087 2.5268,0 4.4383,-0.4774 5.7154,-1.4388 1.2858,-0.954 1.9298,-2.0699 1.9298,-3.3468 0,-0.8246 -0.2723,-1.5197 -0.8155,-2.0935 -0.5344,-0.5825 -1.4765,-1.0835 -2.8257,-1.5042 -0.9149,-0.2906 -3.0163,-0.7915 -6.2858,-1.5197 -4.2117,-0.929 -7.1647,-2.0772 -8.8584,-3.4351 -2.3914,-1.908 -3.5874,-4.2361 -3.5874,-6.9842 0,-1.7705 0.5623,-3.4197 1.6848,-4.9636 1.1232,-1.5359 2.7447,-2.7077 4.8556,-3.5161 2.1185,-0.8003 4.6637,-1.2048 7.6528,-1.2048 4.891,0 8.5595,0.954 11.0319,2.8614 2.4642,1.9161 3.7589,4.4626 3.8862,7.6557 l -7.8528,0.3068 c -0.3356,-1.786 -1.0599,-3.0717 -2.1654,-3.8478 -1.1042,-0.7841 -2.7617,-1.1718 -4.9721,-1.1718 -2.2824,0 -4.0755,0.412 -5.3621,1.2527 -0.8332,0.5333 -1.2498,1.2534 -1.2498,2.1501 0,0.8246 0.3894,1.5278 1.1681,2.1103 0.9878,0.7437 3.3969,1.5197 7.2192,2.32 3.8223,0.8084 6.648,1.6411 8.4778,2.498 1.8291,0.8643 3.2606,2.0368 4.3022,3.5322 1.0326,1.4954 1.5493,3.3388 1.5493,5.5293 0,1.9883 -0.6167,3.8558 -1.857,5.5859 -1.241,1.7381 -2.9891,3.0313 -5.2532,3.872 -2.2648,0.8489 -5.0905,1.2689 -8.4696,1.2689 -4.9176,0 -8.695,-1.01 -11.3307,-3.0394 -2.6358,-2.0287 -4.2117,-4.9878 -4.7189,-8.868 z"
       style="fill:#082d76;fill-rule:evenodd"
       id="path17" />
    <path
       d="m 438.3906,195.9388 c 0,3.9287 1.0238,6.9114 3.0531,8.9408 2.0374,2.0287 4.6187,3.0394 7.7528,3.0394 3.1245,0 5.697,-1.0026 7.7078,-3.0232 2.0021,-2.0132 3.0075,-5.0283 3.0075,-9.0541 0,-3.9772 -0.9782,-6.9438 -2.9258,-8.9078 -1.9564,-1.9566 -4.5561,-2.9348 -7.7895,-2.9348 -3.243,0 -5.8516,0.9944 -7.8345,2.9753 -1.9748,1.9802 -2.9714,4.9629 -2.9714,8.9644 z m -8.0884,0.2346 c 0,-3.541 0.5895,-6.5075 1.7753,-8.9084 0.8877,-1.7618 2.0926,-3.3543 3.6235,-4.7614 1.5303,-1.3983 3.2056,-2.4406 5.0265,-3.1202 2.4282,-0.921 5.2171,-1.3741 8.3873,-1.3741 5.7331,0 10.3164,1.5844 13.7582,4.7613 3.4417,3.1689 5.1626,7.5823 5.1626,13.2329 0,5.6102 -1.7113,9.9913 -5.1259,13.1601 -3.4152,3.1607 -7.9801,4.7451 -13.686,4.7451 -5.7882,0 -10.3886,-1.5763 -13.8038,-4.7208 -3.4145,-3.1527 -5.1177,-7.4933 -5.1177,-13.0145 z"
       style="fill:#082d76;fill-rule:evenodd"
       id="path19" />
    <path
       d="m 400.4768,184.4764 v 22.9895 h 5.8597 c 2.1919,0 3.7773,-0.1045 4.7549,-0.331 1.2681,-0.2832 2.328,-0.7599 3.1708,-1.4388 0.842,-0.679 1.5214,-1.8029 2.0551,-3.3549 0.5262,-1.5521 0.7978,-3.6779 0.7978,-6.362 0,-2.6833 -0.2716,-4.737 -0.7978,-6.1758 -0.5337,-1.4388 -1.2764,-2.5627 -2.2273,-3.363 -0.9605,-0.8084 -2.1736,-1.3498 -3.6413,-1.633 -1.0966,-0.2258 -3.2423,-0.331 -6.4485,-0.331 z m -7.8529,-5.8772 h 14.3559 c 3.2334,0 5.6976,0.2185 7.4001,0.6635 2.2818,0.598 4.2389,1.6646 5.8598,3.2005 1.6303,1.5278 2.8713,3.4034 3.7229,5.6182 0.8427,2.2229 1.2675,4.9556 1.2675,8.2134 0,2.8533 -0.3983,5.3189 -1.1947,7.3881 -0.9694,2.5222 -2.356,4.5671 -4.1674,6.1273 -1.3581,1.1886 -3.1967,2.1103 -5.5153,2.773 -1.7297,0.4929 -4.049,0.7356 -6.9563,0.7356 h -14.7725 z"
       style="fill:#082d76;fill-rule:evenodd"
       id="path21" />
    <path
       d="m 332.9894,213.3188 v -28.8424 h -11.539 v -5.8772 h 30.9125 v 5.8772 h -11.5118 v 28.8424 z"
       style="fill:#082d76;fill-rule:evenodd"
       id="path23" />
    <path
       d="m 285.9987,202.0256 7.6446,-0.6708 c 0.4527,2.2957 1.3853,3.9772 2.7985,5.0526 1.4036,1.0666 3.2967,1.6087 5.6881,1.6087 2.5269,0 4.4377,-0.4774 5.7154,-1.4388 1.2859,-0.954 1.9292,-2.0699 1.9292,-3.3468 0,-0.8246 -0.2716,-1.5197 -0.8148,-2.0935 -0.5351,-0.5825 -1.4772,-1.0835 -2.8264,-1.5042 -0.9149,-0.2906 -3.0163,-0.7915 -6.2858,-1.5197 -4.2117,-0.929 -7.1647,-2.0772 -8.8584,-3.4351 -2.3907,-1.908 -3.5867,-4.2361 -3.5867,-6.9842 0,-1.7705 0.5623,-3.4197 1.6848,-4.9636 1.1232,-1.5359 2.744,-2.7077 4.8549,-3.5161 2.1191,-0.8003 4.6644,-1.2048 7.6535,-1.2048 4.891,0 8.5588,0.954 11.0318,2.8614 2.4643,1.9161 3.759,4.4626 3.8856,7.6557 l -7.8528,0.3068 c -0.335,-1.786 -1.0599,-3.0717 -2.1648,-3.8478 -1.1048,-0.7841 -2.7617,-1.1718 -4.9727,-1.1718 -2.2818,0 -4.0755,0.412 -5.3621,1.2527 -0.8332,0.5333 -1.2491,1.2534 -1.2491,2.1501 0,0.8246 0.3887,1.5278 1.1681,2.1103 0.9871,0.7437 3.3962,1.5197 7.2185,2.32 3.8229,0.8084 6.648,1.6411 8.4778,2.498 1.8298,0.8643 3.2613,2.0368 4.3022,3.5322 1.0326,1.4954 1.5493,3.3388 1.5493,5.5293 0,1.9883 -0.6161,3.8558 -1.857,5.5859 -1.241,1.7381 -2.9891,3.0313 -5.2532,3.872 -2.2648,0.8489 -5.0898,1.2689 -8.4689,1.2689 -4.9183,0 -8.6957,-1.01 -11.3314,-3.0394 -2.6351,-2.0287 -4.211,-4.9878 -4.7182,-8.868 z"
       style="fill:#082d76;fill-rule:evenodd"
       id="path25" />
    <path
       d="m 327.4455,159.1339 v -34.4364 h 7.8522 v 28.5835 h 19.5288 v 5.8529 z"
       style="fill:#082d76;fill-rule:evenodd"
       id="path27" />
    <path
       d="m 259.5688,130.2915 v 22.9895 h 5.8597 c 2.1919,0 3.7773,-0.1045 4.7549,-0.3311 1.2688,-0.2831 2.3281,-0.7598 3.1708,-1.4387 0.8421,-0.679 1.5214,-1.8029 2.0558,-3.355 0.5255,-1.552 0.7971,-3.6778 0.7971,-6.3619 0,-2.6834 -0.2716,-4.737 -0.7971,-6.1758 -0.5344,-1.4388 -1.277,-2.5627 -2.228,-3.363 -0.9605,-0.8084 -2.1736,-1.3498 -3.6412,-1.633 -1.096,-0.2258 -3.2423,-0.331 -6.4486,-0.331 z m -7.8529,-5.8772 h 14.3559 c 3.2334,0 5.6977,0.2185 7.4002,0.6634 2.2825,0.5981 4.2389,1.6647 5.8597,3.2006 1.6303,1.5277 2.872,3.4034 3.7229,5.6182 0.8427,2.2229 1.2675,4.9555 1.2675,8.2134 0,2.8532 -0.3976,5.3189 -1.1947,7.388 -0.9693,2.5223 -2.3553,4.5672 -4.1674,6.1273 -1.3581,1.1887 -3.1967,2.1103 -5.5153,2.7731 -1.7297,0.4929 -4.0489,0.7356 -6.9563,0.7356 h -14.7725 z"
       style="fill:#082d76;fill-rule:evenodd"
       id="path29" />
    <path
       d="m 485.2819,93.6558 7.6445,-0.6709 c 0.4527,2.2958 1.3853,3.9773 2.7985,5.0526 1.4037,1.0667 3.2968,1.6087 5.6882,1.6087 2.5268,0 4.4376,-0.4773 5.7154,-1.4388 1.2859,-0.954 1.9291,-2.0698 1.9291,-3.3468 0,-0.8245 -0.2716,-1.5197 -0.8148,-2.0934 -0.535,-0.5826 -1.4772,-1.0835 -2.8264,-1.5042 -0.9149,-0.2906 -3.0163,-0.7915 -6.2858,-1.5197 -4.2117,-0.9291 -7.1647,-2.0773 -8.8583,-3.4351 -2.3907,-1.9081 -3.5868,-4.2362 -3.5868,-6.9843 0,-1.7705 0.5623,-3.4196 1.6848,-4.9636 1.1232,-1.5358 2.744,-2.7076 4.855,-3.516 2.1191,-0.8003 4.6643,-1.2048 7.6534,-1.2048 4.891,0 8.5588,0.954 11.0319,2.8613 2.4642,1.9162 3.759,4.4627 3.8856,7.6558 l -7.8529,0.3068 c -0.3349,-1.786 -1.0599,-3.0718 -2.1647,-3.8478 -1.1048,-0.7841 -2.7617,-1.1718 -4.9727,-1.1718 -2.2818,0 -4.0756,0.412 -5.3621,1.2527 -0.8332,0.5333 -1.2492,1.2534 -1.2492,2.1501 0,0.8246 0.3887,1.5278 1.1682,2.1103 0.987,0.7437 3.3961,1.5197 7.2184,2.32 3.823,0.8084 6.648,1.641 8.4778,2.498 1.8298,0.8643 3.2614,2.0368 4.3022,3.5322 1.0327,1.4954 1.5493,3.3387 1.5493,5.5293 0,1.9882 -0.616,3.8558 -1.857,5.5859 -1.241,1.7381 -2.9891,3.0312 -5.2532,3.872 -2.2648,0.8488 -5.0898,1.2689 -8.4689,1.2689 -4.9183,0 -8.6956,-1.01 -11.3314,-3.0394 -2.6351,-2.0287 -4.211,-4.9879 -4.7181,-8.868 z"
       style="fill:#082d76;fill-rule:evenodd"
       id="path31" />
    <path
       d="m 451.4973,87.5689 c 0,3.9287 1.0232,6.9115 3.0524,8.9409 2.0374,2.0287 4.6187,3.0393 7.7528,3.0393 3.1246,0 5.697,-1.0025 7.7079,-3.0232 2.002,-2.0132 3.0075,-5.0283 3.0075,-9.054 0,-3.9773 -0.9782,-6.9438 -2.9258,-8.9078 -1.9564,-1.9566 -4.5561,-2.9349 -7.7896,-2.9349 -3.243,0 -5.8515,0.9945 -7.8345,2.9753 -1.9748,1.9802 -2.9707,4.963 -2.9707,8.9644 z m -8.0891,0.2347 c 0,-3.541 0.5895,-6.5076 1.7754,-8.9085 0.8876,-1.7617 2.0925,-3.3542 3.6235,-4.7613 1.5303,-1.3983 3.2055,-2.4407 5.0265,-3.1203 2.4281,-0.921 5.2171,-1.374 8.3879,-1.374 5.7331,0 10.3158,1.5844 13.7575,4.7613 3.4418,3.1688 5.1634,7.5822 5.1634,13.2329 0,5.6101 -1.7121,9.9912 -5.1266,13.16 -3.4145,3.1608 -7.9802,4.7452 -13.686,4.7452 -5.7883,0 -10.3886,-1.5763 -13.8039,-4.7209 -3.4145,-3.1526 -5.1177,-7.4932 -5.1177,-13.0144 z"
       style="fill:#082d76;fill-rule:evenodd"
       id="path33" />
    <path
       d="m 413.6366,84.9098 h 5.8059 c 3.7685,0 6.1232,-0.1375 7.0653,-0.4207 0.9326,-0.2825 1.6664,-0.776 2.2008,-1.4711 0.5255,-0.6951 0.7964,-1.5602 0.7964,-2.6032 0,-1.1718 -0.3526,-2.1096 -1.0496,-2.829 -0.6985,-0.7194 -1.6848,-1.1725 -2.9619,-1.366 -0.6344,-0.0728 -2.5452,-0.1132 -5.7331,-0.1132 h -6.1238 z m -7.8617,20.0392 V 70.2294 h 16.5396 c 4.1572,0 7.1728,0.3155 9.0571,0.9378 1.8836,0.6223 3.3962,1.7301 4.5289,3.3226 1.132,1.6006 1.6936,3.4196 1.6936,5.4726 0,2.6032 -0.8604,4.7613 -2.5724,6.459 -1.7121,1.6896 -4.2845,2.7643 -7.6991,3.2012 1.7032,0.8886 3.1069,1.8588 4.2117,2.918 1.1055,1.0592 2.5908,2.9342 4.4656,5.6345 l 4.7555,6.7739 h -9.3933 l -5.6787,-7.558 c -2.0197,-2.7003 -3.3961,-4.398 -4.1395,-5.1012 -0.7426,-0.7032 -1.5309,-1.1799 -2.3641,-1.4468 -0.8332,-0.2589 -2.1464,-0.3877 -3.9578,-0.3877 h -1.5854 v 14.4937 z"
       style="fill:#082d76;fill-rule:evenodd"
       id="path35" />
    <path
       d="m 366.4567,70.2294 h 7.8529 V 89.032 c 0,2.9834 0.0994,4.9231 0.2893,5.8044 0.3356,1.4226 1.1416,2.5627 2.4009,3.4196 1.2675,0.8643 2.9979,1.2931 5.1899,1.2931 2.228,0 3.9128,-0.4045 5.0449,-1.221 1.1327,-0.8084 1.8114,-1.8102 2.0381,-2.9908 0.2348,-1.188 0.3437,-3.1527 0.3437,-5.9008 V 70.2294 h 7.8529 v 18.2369 c 0,4.1714 -0.2083,7.1137 -0.6338,8.8357 -0.4261,1.7219 -1.2048,3.1688 -2.3457,4.3568 -1.1416,1.1805 -2.6719,2.1258 -4.5739,2.8297 -1.9114,0.7032 -4.4111,1.0504 -7.4914,1.0504 -3.7127,0 -6.5295,-0.3796 -8.4498,-1.1475 -1.9204,-0.768 -3.433,-1.7624 -4.5473,-2.9828 -1.1144,-1.221 -1.8482,-2.506 -2.2008,-3.8484 -0.5167,-1.9883 -0.7699,-4.9225 -0.7699,-8.8107 z"
       style="fill:#082d76;fill-rule:evenodd"
       id="path37" />
    <path
       d="m 342.3365,92.1846 v -5.8522 h 16.929 v 13.831 c -1.6494,1.4226 -4.0313,2.6759 -7.1558,3.7587 -3.1253,1.0754 -6.2859,1.6168 -9.4833,1.6168 -4.0673,0 -7.618,-0.7598 -10.6425,-2.2795 -3.0258,-1.5278 -5.2987,-3.7022 -6.8208,-6.5393 -1.5215,-2.8378 -2.2825,-5.9176 -2.2825,-9.2482 0,-3.6132 0.8516,-6.8305 2.5452,-9.6434 1.7032,-2.8054 4.1844,-4.9636 7.4642,-6.459 2.4901,-1.1563 5.5969,-1.73 9.3103,-1.73 4.8277,0 8.6044,0.9054 11.313,2.7083 2.7175,1.8103 4.4656,4.3082 5.2444,7.5013 l -7.7985,1.3013 c -0.552,-1.7051 -1.5847,-3.0556 -3.0973,-4.0413 -1.5132,-0.9864 -3.3975,-1.4799 -5.6616,-1.4799 -3.4322,0 -6.1592,0.9702 -8.1878,2.9106 -2.0286,1.9478 -3.034,4.8261 -3.034,8.6496 0,4.114 1.0238,7.2101 3.0789,9.2718 2.0477,2.0611 4.7372,3.0879 8.0612,3.0879 1.6487,0 3.2968,-0.2912 4.9544,-0.865 1.6494,-0.5737 3.0707,-1.277 4.2579,-2.0934 v -4.4061 z"
       style="fill:#082d76;fill-rule:evenodd"
       id="path39" />
    <path
       d="m 249.7506,93.6558 7.6439,-0.6709 c 0.4534,2.2958 1.3853,3.9773 2.7992,5.0526 1.4036,1.0667 3.2968,1.6087 5.6875,1.6087 2.5268,0 4.4383,-0.4773 5.716,-1.4388 1.2853,-0.954 1.9292,-2.0698 1.9292,-3.3468 0,-0.8245 -0.2723,-1.5197 -0.8155,-2.0934 -0.5344,-0.5826 -1.4765,-1.0835 -2.8257,-1.5042 -0.9149,-0.2906 -3.0163,-0.7915 -6.2858,-1.5197 -4.2117,-0.9291 -7.1647,-2.0773 -8.8583,-3.4351 -2.3914,-1.9081 -3.5868,-4.2362 -3.5868,-6.9843 0,-1.7705 0.5616,-3.4196 1.6841,-4.9636 1.1232,-1.5358 2.7447,-2.7076 4.8557,-3.516 2.1191,-0.8003 4.6636,-1.2048 7.6534,-1.2048 4.8903,0 8.5588,0.954 11.0312,2.8613 2.4642,1.9162 3.759,4.4627 3.8863,7.6558 l -7.8529,0.3068 c -0.3356,-1.786 -1.0599,-3.0718 -2.1654,-3.8478 -1.1042,-0.7841 -2.7617,-1.1718 -4.9721,-1.1718 -2.2824,0 -4.0755,0.412 -5.3621,1.2527 -0.8332,0.5333 -1.2498,1.2534 -1.2498,2.1501 0,0.8246 0.3894,1.5278 1.1682,2.1103 0.9877,0.7437 3.3968,1.5197 7.2191,2.32 3.8223,0.8084 6.648,1.641 8.4778,2.498 1.8291,0.8643 3.2607,2.0368 4.3022,3.5322 1.0326,1.4954 1.5493,3.3387 1.5493,5.5293 0,1.9882 -0.6167,3.8558 -1.857,5.5859 -1.241,1.7381 -2.9891,3.0312 -5.2532,3.872 -2.2648,0.8488 -5.0905,1.2689 -8.4696,1.2689 -4.9176,0 -8.695,-1.01 -11.3307,-3.0394 -2.6358,-2.0287 -4.2117,-4.9879 -4.7182,-8.868 z"
       style="fill:#082d76;fill-rule:evenodd"
       id="path41" />
    <path
       d="M 279.1234,192.1719 H 259.596 v -4.284 c 0,-1.8756 1.5507,-3.4115 3.4445,-3.4115 h 4.5486 12.9931 v -5.8772 h -4.7665 -19.3068 c -2.6222,0 -4.7665,2.1238 -4.7665,4.7209 v 25.2778 c 0,2.5971 2.1457,4.7209 4.7665,4.7209 h 11.4301 13.3858 v -5.8529 h -4.1871 -14.0972 c -1.8945,0 -3.4445,-1.5352 -3.4445,-3.4115 v -6.0377 h 19.5274 z"
       style="fill:#082d76;fill-rule:evenodd"
       id="path43" />
    <path
       d="M 318.3694,137.987 H 298.842 v -4.284 c 0,-1.8757 1.5507,-3.4115 3.4445,-3.4115 h 4.5486 12.9931 v -5.8772 h -4.7665 -19.3068 c -2.6221,0 -4.7664,2.1238 -4.7664,4.7209 v 25.2778 c 0,2.5971 2.1456,4.7209 4.7664,4.7209 h 11.4301 13.3859 v -5.8529 h -4.1872 -14.0972 c -1.8945,0 -3.4445,-1.5352 -3.4445,-3.4116 v -6.0376 h 19.5274 z"
       style="fill:#082d76;fill-rule:evenodd"
       id="path45" />
    <path
       d="m 315.3715,83.8021 h -19.5274 v -4.284 c 0,-1.8757 1.5507,-3.4115 3.4445,-3.4115 h 4.5486 12.9931 v -5.8772 h -4.7665 -19.3068 c -2.6222,0 -4.7665,2.1238 -4.7665,4.7209 v 25.2778 c 0,2.5971 2.1457,4.7209 4.7665,4.7209 h 11.4301 13.3858 v -5.8529 h -4.1871 -14.0972 c -1.8945,0 -3.4445,-1.5352 -3.4445,-3.4116 v -6.0376 h 19.5274 z"
       style="fill:#082d76;fill-rule:evenodd"
       id="path47" />
    <path
       d="m 379.8608,199.585 h -12.9636 l -6e-4,-10.737 c 0,-2.4049 1.7084,-4.3716 3.7974,-4.3716 h 5.3693 c 2.0891,0 3.7975,1.9687 3.7975,4.3716 z m -19.7274,13.7338 h 6.7638 v -7.8897 h 12.9636 v 7.8897 h 6.7637 V 188.072 c 0,-5.2097 -3.7025,-9.4728 -8.2285,-9.4728 h -10.0341 c -4.5259,0 -8.2285,4.2624 -8.2285,9.4728 z"
       style="fill:#082d76;fill-rule:evenodd"
       id="path49" />
    <path
       d="m 566.8377,199.585 h -12.9636 l -6e-4,-10.737 c 0,-2.4049 1.7084,-4.3716 3.7975,-4.3716 h 5.3693 c 2.089,0 3.7974,1.9687 3.7974,4.3716 z m -19.7274,13.7338 h 6.7638 v -7.8897 h 12.9636 v 7.8897 h 6.7638 V 188.072 c 0,-5.2097 -3.7026,-9.4728 -8.2285,-9.4728 h -10.0341 c -4.526,0 -8.2286,4.2624 -8.2286,9.4728 z"
       style="fill:#082d76;fill-rule:evenodd"
       id="path51" />
  </g>
</svg>
