<?xml version="1.0" encoding="UTF-8"?>
<!DOCTYPE svg PUBLIC "-//W3C//DTD SVG 1.1//EN" "http://www.w3.org/Graphics/SVG/1.1/DTD/svg11.dtd">
<!-- Creator: CorelDRAW X8 -->
<svg xmlns="http://www.w3.org/2000/svg" xml:space="preserve" width="1000px" height="346px" version="1.1" style="shape-rendering:geometricPrecision; text-rendering:geometricPrecision; image-rendering:optimizeQuality; fill-rule:evenodd; clip-rule:evenodd"
viewBox="0 0 193234 66700"
 xmlns:xlink="http://www.w3.org/1999/xlink">
 <defs>
  <style type="text/css">
   <![CDATA[
    .fil0 {fill:#201E1E}
   ]]>
  </style>
 </defs>
 <g id="Capa_x0020_1">
  <metadata id="CorelCorpID_0Corel-Layer"/>
  <g id="_2361683419280">
   <path class="fil0" d="M102934 35558c0,-4072 605,-7709 2513,-10348 1650,-2282 4131,-3906 8028,-3906l8759 0 0 16346c0,1994 -573,4214 -1534,5748 -1748,2792 -4626,4245 -8000,4245 -4838,0 -7905,-2708 -9156,-7194 -365,-1310 -610,-3207 -610,-4891zm-7441 -697c0,3700 549,7045 1977,10108 1014,2174 1278,2307 2485,3870 200,259 295,345 518,567 464,462 1137,1107 1686,1491 219,154 405,293 634,450 1197,819 3090,1588 4496,1937 1528,378 4552,699 6285,346 1679,-342 2613,-386 4409,-1327 125,-66 198,-115 350,-192 1444,-740 2964,-2054 3901,-3384 143,-203 269,-476 465,-619 0,1506 809,3033 2046,3920 237,170 729,388 987,486 1558,591 2331,374 3318,493 202,24 470,163 470,-174l0 -37727 -16742 0c-3660,0 -6261,1045 -8918,2631 -1271,758 -2842,2147 -3734,3239l-992 1256c-2462,3422 -3641,8316 -3641,12629z"/>
   <path class="fil0" d="M35345 43150c0,1753 384,3187 1186,4624 772,1383 1579,2132 2822,3068 2177,1640 6202,2689 9014,2689 2525,0 4111,-88 6633,-807 1964,-561 4309,-1720 5750,-3163 451,-452 1005,-1118 1351,-1670 810,-1294 1380,-2954 1380,-4586l0 -21149c0,-4004 -1588,-7050 -6201,-7050 -867,0 -620,40 -620,2402l21 7881c159,1160 57,13399 57,15669 0,1976 -577,3413 -2036,4550 -594,463 -1376,813 -2199,1056 -3513,1041 -9522,439 -10295,-4021 -241,-1390 -120,-9152 -120,-11191 0,-1929 -77,-3623 -77,-5578 0,-2482 339,-5713 -670,-7775 -1159,-2368 -3498,-2993 -5996,-2993l0 28044z"/>
   <path class="fil0" d="M0 24558c0,2841 83,4405 1837,6762 1650,2217 4686,3540 7222,4325l5451 1447c2536,628 5575,1126 6353,4031 420,1571 -55,3204 -1142,4229 -313,295 -574,434 -988,640 -1565,776 -3205,722 -5479,722 -1077,0 -1868,77 -2945,77l-8533 -7c-289,-2 -536,-60 -536,239l0 6043 12324 0c2137,0 3660,-41 5743,-457 2328,-466 4343,-1504 6004,-2986 130,-117 93,-88 195,-193 11,-12 26,-29 37,-40 2849,-2944 3343,-7053 2224,-10829 -1704,-5744 -7829,-6318 -13186,-7893 -1063,-313 -2224,-608 -3281,-903 -1614,-450 -3082,-1094 -3758,-2597 -666,-1483 -220,-3767 938,-4671 1759,-1372 4825,-1116 7332,-1116 1458,0 4844,98 6118,-160 1138,-231 2091,-578 2974,-1288l986 -1107c646,-972 929,-2281 929,-3720l-13797 0c-1768,0 -3560,247 -4962,620 -766,203 -1376,422 -2070,719 -1617,690 -2924,1668 -4047,3005 -1018,1213 -1943,3467 -1943,5108z"/>
   <path class="fil0" d="M72317 29360l0 23473c0,179 54,233 233,233l6511 0 0 -23550c0,-2549 625,-4385 1805,-5788 972,-1155 2240,-1702 3666,-2069 2806,-720 5738,321 8481,-1051 2022,-1012 2635,-2842 2635,-5502l-9844 0c-3842,0 -7457,1349 -9942,3930 -2467,2561 -3545,6788 -3545,10324z"/>
   <path class="fil0" d="M146650 10613c0,1825 998,3945 2446,5070l1087 772c232,154 338,204 607,324 1627,725 4629,1361 6618,1907l10496 2757c3458,858 7001,1882 10494,2758l11183 3000c262,80 516,197 785,68 -99,-371 -390,-341 -1197,-664l-15729 -6047c-265,-93 -439,-169 -669,-261l-1407 -531c-944,-349 -1792,-707 -2750,-1048l-3429 -1298c-229,-87 -368,-168 -659,-271 -4810,-1699 -10274,-4014 -15154,-5770l-2003 -789c-157,-63 -719,-261 -719,23z"/>
   <path class="fil0" d="M148045 387c0,1872 434,3721 1568,5096 1025,1243 2615,1992 4038,2703 447,223 865,454 1293,644l5238 2436c2536,1046 6577,3222 9090,4239l2591 1206c244,104 385,196 623,307l12376 5913c202,99 449,207 636,295 248,117 558,350 584,87 27,-263 -612,-517 -1034,-800 -2037,-1369 -4976,-3048 -7069,-4400l-2336 -1462c-2141,-1280 -4389,-2800 -6490,-4048l-8907 -5508c-1652,-1083 -4408,-2556 -6000,-3609l-5372 -3230c-285,-164 -312,-256 -751,-256 -41,174 -78,178 -78,387z"/>
   <path class="fil0" d="M149673 22233c0,596 696,1779 976,2201 901,1356 2026,2178 3551,2803 717,294 4737,584 5859,574l12094 773c757,-3 2113,192 2943,234 1579,82 2968,128 4507,299l1537 91c1783,46 2819,164 4502,303l3021 157c372,10 352,62 695,80 280,15 563,-20 841,11l3035 221 0 -310 -5381 -974c-3468,-652 -7380,-1215 -10812,-1899 -871,-173 -1787,-335 -2708,-469l-2746 -510c-3681,-606 -7222,-1262 -10874,-1914 -948,-169 -1778,-272 -2713,-464l-8172 -1439c-109,0 -155,106 -155,232z"/>
   <path class="fil0" d="M158586 32227c0,556 973,1945 1472,2325 630,480 1410,1231 2501,1452 1127,227 847,215 1806,62 876,-140 1760,-197 2649,-374l1781 -235c211,-28 655,-77 882,-124 324,-68 527,-63 893,-116l21036 -2990c-41,-497 -478,-310 -1783,-310l-6201 78c-2816,0 -5632,0 -8448,0 -5241,0 -10400,106 -15658,76 -253,-1 -930,-92 -930,156z"/>
   <path class="fil0" d="M144635 61045c2325,0 4532,-454 6491,-872 1631,-347 5176,-1328 6561,-1808l8512 -3577c216,-119 405,-223 605,-326 99,-52 217,-95 300,-165 168,-142 133,-20 164,-301 -310,-149 -245,-34 -901,184l-6138 1612c-2111,500 -8067,1562 -9922,1781l-2258 301c-769,111 -1567,143 -2384,250 -694,92 -1679,95 -2369,189 -666,90 -2685,76 -3680,196 -693,83 -1273,87 -33,1078 203,162 564,368 814,503 1219,659 2797,955 4238,955z"/>
   <path class="fil0" d="M168818 43382c747,0 1003,-104 1650,-364 466,-188 854,-344 1317,-544 874,-377 1687,-703 2569,-1073 2327,-977 5444,-2188 7717,-3211 819,-368 1691,-751 2547,-1094 846,-340 1678,-723 2548,-1094 465,-199 831,-357 1295,-566 357,-161 966,-501 1285,-575l0 -310 -22506 5783c-207,60 -715,180 -828,266 -300,230 191,728 542,1314 373,623 884,1468 1864,1468z"/>
   <path class="fil0" d="M145410 64144c69,260 209,362 438,491 237,133 445,263 655,353 2704,1157 7049,161 9714,-966 516,-217 895,-396 1407,-608 256,-106 383,-188 630,-299l4533 -2442c1374,-886 4068,-2731 4858,-3995 570,-914 -1239,367 -1506,527 -211,127 -395,244 -580,351l-3328 1631c-3009,1351 -8697,3196 -11945,3866l-3269 684c-714,139 -1186,125 -1607,407z"/>
   <path class="fil0" d="M170446 48418c0,518 103,2866 852,2866 1054,0 1688,-749 2491,-1384 2588,-2049 5483,-4657 8006,-6640 719,-564 1305,-1130 2026,-1693l982 -800c352,-314 655,-547 1007,-854 349,-304 648,-558 1008,-851 681,-554 842,-550 758,-948 -295,25 -345,131 -576,277 -204,129 -330,196 -535,318l-8547 5169c-364,241 -688,417 -1063,642l-4317 2503c-216,111 -2092,1125 -2092,1395z"/>
   <path class="fil0" d="M181530 47488c0,-569 -1144,563 -1605,953l-7189 6139c-2521,2131 -1543,1138 -2571,4248 -233,704 -907,2134 339,881 256,-258 544,-507 771,-778l1097 -1229c126,-157 232,-249 379,-394l6627 -7322c233,-252 2152,-2264 2152,-2498z"/>
   <path class="fil0" d="M157114 66081c91,340 304,360 627,458 267,81 551,134 845,161l1017 0c2170,-184 4617,-1469 5783,-3042 333,-449 1678,-2698 1531,-2970 -154,-285 -437,42 -551,152 -1936,1883 -6094,4196 -8649,4914 -309,86 -445,110 -603,327z"/>
  </g>
 </g>
</svg>
